<svg id="visual" viewBox="0 0 900 600" width="900" height="600" xmlns="http://www.w3.org/2000/svg" xmlns:xlink="http://www.w3.org/1999/xlink" version="1.1">
<path d="M0 139L25 150C50 161 100 183 150 195C200 207 250 209 300 203C350 197 400 183 450 186C500 189 550 209 600 207C650 205 700 181 750 163C800 145 850 133 875 127L900 121L900 0L875 0C850 0 800 0 750 0C700 0 650 0 600 0C550 0 500 0 450 0C400 0 350 0 300 0C250 0 200 0 150 0C100 0 50 0 25 0L0 0Z" fill="white">
</path>
<path d="M0 325L25 333C50 341 100 357 150 359C200 361 250 349 300 348C350 347 400 357 450 360C500 363 550 359 600 352C650 345 700 335 750 330C800 325 850 325 875 325L900 325L900 119L875 125C850 131 800 143 750 161C700 179 650 203 600 205C550 207 500 187 450 184C400 181 350 195 300 201C250 207 200 205 150 193C100 181 50 159 25 148L0 137Z" fill="#d1def5">
</path>
<path d="M0 385L25 395C50 405 100 425 150 432C200 439 250 433 300 428C350 423 400 419 450 416C500 413 550 411 600 409C650 407 700 405 750 406C800 407 850 411 875 413L900 415L900 323L875 323C850 323 800 323 750 328C700 333 650 343 600 350C550 357 500 361 450 358C400 355 350 345 300 346C250 347 200 359 150 357C100 355 50 339 25 331L0 323Z" fill="white">
</path>
<path d="M0 475L25 480C50 485 100 495 150 497C200 499 250 493 300 492C350 491 400 495 450 492C500 489 550 479 600 476C650 473 700 477 750 478C800 479 850 477 875 476L900 475L900 413L875 411C850 409 800 405 750 404C700 403 650 405 600 407C550 409 500 411 450 414C400 417 350 421 300 426C250 431 200 437 150 430C100 423 50 403 25 393L0 383Z" fill="#d1def5">
</path><path d="M0 601L25 601C50 601 100 601 150 601C200 601 250 601 300 601C350 601 400 601 450 601C500 601 550 601 600 601C650 601 700 601 750 601C800 601 850 601 875 601L900 601L900 473L875 474C850 475 800 477 750 476C700 475 650 471 600 474C550 477 500 487 450 490C400 493 350 489 300 490C250 491 200 497 150 495C100 493 50 483 25 478L0 473Z" fill="white">
</path>
</svg>